<?xml version="1.0" encoding="utf-8"?>
<!-- Generator: Adobe Illustrator 27.0.0, SVG Export Plug-In . SVG Version: 6.00 Build 0)  -->
<svg version="1.1" id="Layer_1" xmlns="http://www.w3.org/2000/svg" xmlns:xlink="http://www.w3.org/1999/xlink" x="0px" y="0px"
	 viewBox="0 0 40 40" style="enable-background:new 0 0 40 40;" xml:space="preserve">
<style type="text/css">
	.st0{fill:#FFFFFF;}
</style>
<g>
	<path class="st0" d="M13.4,38.52c-0.89,0-1.64-0.31-2.27-0.93c-0.62-0.62-0.93-1.38-0.93-2.27s0.31-1.64,0.93-2.27
		c0.62-0.62,1.38-0.93,2.27-0.93c0.89,0,1.64,0.31,2.27,0.93c0.62,0.62,0.93,1.38,0.93,2.27s-0.31,1.64-0.93,2.27
		C15.04,38.2,14.29,38.52,13.4,38.52z M31.18,38.52c-0.89,0-1.64-0.31-2.27-0.93c-0.62-0.62-0.93-1.38-0.93-2.27
		s0.31-1.64,0.93-2.27c0.62-0.62,1.38-0.93,2.27-0.93c0.89,0,1.64,0.31,2.27,0.93c0.62,0.62,0.93,1.38,0.93,2.27
		s-0.31,1.64-0.93,2.27C32.82,38.2,32.06,38.52,31.18,38.52z M10.1,5.53h24.85c1.07,0,1.88,0.47,2.45,1.42
		c0.56,0.95,0.58,1.91,0.04,2.89l-5.25,9.53c-0.39,0.62-0.87,1.14-1.45,1.54c-0.58,0.4-1.24,0.6-1.98,0.6H15.68l-2.17,4.12h21.37
		v3.61H12.95c-1.48,0-2.54-0.5-3.18-1.51c-0.64-1.01-0.62-2.1,0.07-3.28l2.71-4.97l-6.5-13.8H2.41V2h6.04L10.1,5.53z"/>
</g>
</svg>
