<?xml version="1.0" encoding="utf-8"?>
<!-- Generator: Adobe Illustrator 27.0.0, SVG Export Plug-In . SVG Version: 6.00 Build 0)  -->
<svg version="1.1" id="Layer_1" xmlns="http://www.w3.org/2000/svg" xmlns:xlink="http://www.w3.org/1999/xlink" x="0px" y="0px"
	 viewBox="0 0 48 48" style="enable-background:new 0 0 48 48;" xml:space="preserve">
<style type="text/css">
	.st0{fill:#FFFFFF;}
</style>
<path class="st0" d="M14.35,44.5c-1,0-1.85-0.35-2.55-1.05c-0.7-0.7-1.05-1.55-1.05-2.55s0.35-1.85,1.05-2.55
	c0.7-0.7,1.55-1.05,2.55-1.05c1,0,1.85,0.35,2.55,1.05c0.7,0.7,1.05,1.55,1.05,2.55s-0.35,1.85-1.05,2.55
	C16.2,44.15,15.35,44.5,14.35,44.5z M34.35,44.5c-1,0-1.85-0.35-2.55-1.05c-0.7-0.7-1.05-1.55-1.05-2.55s0.35-1.85,1.05-2.55
	c0.7-0.7,1.55-1.05,2.55-1.05s1.85,0.35,2.55,1.05c0.7,0.7,1.05,1.55,1.05,2.55s-0.35,1.85-1.05,2.55
	C36.2,44.15,35.35,44.5,34.35,44.5z M10.6,7.4h28c1.2,0,2.12,0.53,2.75,1.6s0.65,2.15,0.05,3.25l-5.9,10.7
	c-0.43,0.7-0.98,1.27-1.62,1.73c-0.65,0.45-1.39,0.67-2.23,0.67h-14.8L14.4,30h24.1v4.1H13.85c-1.67,0-2.86-0.57-3.57-1.7
	c-0.72-1.13-0.69-2.37,0.07-3.7l3.05-5.6L6.1,7.55H2v-4.1h6.75L10.6,7.4z"/>
</svg>
